<svg xmlns="http://www.w3.org/2000/svg" version="1.1" viewBox="-5.0 -10.0 110.0 135.0">
 <path d="m77.082 57.738v-17.113c0-4.0195-3.2734-7.293-7.293-7.293-1.2734 0-2.4531 0.35938-3.5 0.93359-0.93359-2.9453-3.6602-5.0977-6.9141-5.0977-1.582 0-3.0391 0.51953-4.2383 1.3828-1.2852-2.0742-3.5664-3.4688-6.1797-3.4688-1.1211 0-2.1758 0.27734-3.125 0.73047v-3.8555c0-4.0195-3.2695-7.2891-7.2891-7.2891s-7.293 3.2695-7.293 7.2891v25.18l-2.8633-2.8633c-2-2-4.8633-2.5703-7.4805-1.4883-2.6172 1.082-4.2383 3.5117-4.2383 6.3438 0 0.91406 0.17969 1.8008 0.52734 2.6406l9.8047 23.535c-1.2305 1.3047-2 3.0547-2 4.9883v6.25c0 4.0195 3.2734 7.293 7.293 7.293h35.418c4.0195 0 7.293-3.2734 7.293-7.293v-6.25c0-1.9492-0.78125-3.7148-2.0312-5.0273l1.9258-5.8633c1.4492-4.418 2.1836-9.0156 2.1836-13.664zm-56.25-6.6094c0-1.6719 1.2773-2.332 1.668-2.4922 0.38672-0.16406 1.7617-0.59766 2.9414 0.58203l4.6445 4.6445c0.89844 0.89844 2.2344 1.1641 3.4062 0.67578 1.168-0.48437 1.9258-1.6172 1.9258-2.8867v-27.695c0-1.7227 1.4023-3.125 3.125-3.125 1.7227 0 3.125 1.4023 3.125 3.125v23.961c0 1.1523 0.93359 2.082 2.082 2.082 1.1523 0 2.082-0.93359 2.082-2.082v-13.543c0-1.7227 1.4023-3.125 3.125-3.125 1.7227 0 3.125 1.4023 3.125 3.125v13.543c0 1.1523 0.93359 2.082 2.082 2.082 1.1523 0 2.082-0.93359 2.082-2.082v-11.457c0-1.7227 1.4023-3.125 3.125-3.125s3.125 1.4023 3.125 3.125v4.168l0.003906 7.2891c0 1.1523 0.93359 2.082 2.082 2.082 1.1523 0 2.082-0.93359 2.082-2.082v-7.293c0-1.7227 1.4023-3.125 3.125-3.125 1.7227 0 3.125 1.4023 3.125 3.125v17.113c0 4.207-0.66797 8.3672-1.9805 12.363l-1.668 5.0742c-0.50391-0.10938-1.0195-0.17578-1.5586-0.17578h-35.418c-0.57031 0-1.1172 0.082031-1.6523 0.20703l-9.6016-23.043c-0.13281-0.32812-0.20312-0.67969-0.20312-1.0352zm50 37.414c0 1.7227-1.4023 3.125-3.125 3.125h-35.418c-1.7227 0-3.125-1.4023-3.125-3.125v-6.25c0-1.7227 1.4023-3.125 3.125-3.125h35.418c1.7227 0 3.125 1.4023 3.125 3.125z"/>
 <path d="m66.668 85.418c0 2.7773-4.168 2.7773-4.168 0 0-2.7773 4.168-2.7773 4.168 0"/>
 <path d="m43.75 83.332h-8.332c-1.1523 0-2.082 0.93359-2.082 2.082 0 1.1523 0.93359 2.082 2.082 2.082h8.332c1.1523 0 2.082-0.93359 2.082-2.082 0-1.1484-0.92969-2.082-2.082-2.082z"/>
 <path d="m38.543 12.5c1.1523 0 2.082-0.93359 2.082-2.082v-4.168c0-1.1523-0.93359-2.082-2.082-2.082-1.1523 0-2.082 0.93359-2.082 2.082v4.168c-0.003907 1.1484 0.92969 2.082 2.082 2.082z"/>
 <path d="m47.918 16.668c0.53125 0 1.0664-0.20312 1.4727-0.60938l3.2773-3.2812c0.8125-0.8125 0.8125-2.1328 0-2.9453s-2.1328-0.8125-2.9453 0l-3.2812 3.2812c-0.8125 0.8125-0.8125 2.1328 0 2.9453 0.41016 0.40625 0.94141 0.60938 1.4766 0.60938z"/>
 <path d="m27.695 16.055c0.40625 0.41016 0.9375 0.61328 1.4727 0.61328 0.53125 0 1.0664-0.20312 1.4727-0.60938 0.8125-0.8125 0.8125-2.1328 0-2.9453l-3.2812-3.2812c-0.8125-0.8125-2.1328-0.8125-2.9453 0s-0.8125 2.1328 0 2.9453z"/>
 <path d="m20.832 27.082h4.168c1.1523 0 2.082-0.93359 2.082-2.082 0-1.1523-0.93359-2.082-2.082-2.082h-4.168c-1.1523 0-2.082 0.93359-2.082 2.082 0 1.1523 0.93359 2.082 2.082 2.082z"/>
</svg>